<?xml version="1.0" encoding="UTF-8"?>
<svg width="14px" height="16px" viewBox="0 0 14 16" version="1.1" xmlns="http://www.w3.org/2000/svg" xmlns:xlink="http://www.w3.org/1999/xlink">
    <!-- Generator: Sketch 52.5 (67469) - http://www.bohemiancoding.com/sketch -->
    <title>musical-note (1)</title>
    <desc>Created with Sketch.</desc>
    <g id="UI-C1" stroke="none" stroke-width="1" fill="none" fill-rule="evenodd">
        <g id="Lifescape-Home-V2" transform="translate(-525.000000, -200.000000)" fill="#1D9BE3" fill-rule="nonzero">
            <g id="musical-note-(1)" transform="translate(525.000000, 200.000000)">
                <path d="M13.9953875,3.5185272 L13.9953875,0.45241841 C13.9953875,0.308485356 13.927174,0.171246862 13.8167332,0.0875648536 C13.7030441,0.00388284519 13.5568724,-0.0228953975 13.4236937,0.0206192469 L4.55919258,2.9227113 C4.37729002,2.98296234 4.25385615,3.15702092 4.25385615,3.35451046 L4.25385615,6.42396653 L4.25385615,6.42731381 L4.25385615,12.2950962 C3.78935499,11.9637155 3.19492343,11.7829623 2.57125754,11.7829623 C1.91186079,11.7829623 1.28494664,11.9871464 0.807452436,12.3553473 C0.294227378,12.7536736 0.0116287703,13.2925858 0.0116287703,13.8783598 C0.0116287703,14.4641339 0.294227378,15.003046 0.807452436,15.4013724 C1.28494664,15.7695732 1.90861253,15.9737573 2.57125754,15.9737573 C3.23390255,15.9737573 3.85756845,15.7695732 4.33506265,15.4013724 C4.8482877,15.003046 5.13088631,14.4641339 5.13088631,13.8783598 L5.13088631,6.75534728 L13.1183573,4.13777406 L13.1183573,9.37961506 C12.6538561,9.04823431 12.0594246,8.86748117 11.4357587,8.86748117 C10.7763619,8.86748117 10.1494478,9.07166527 9.6719536,9.43986611 C9.15872854,9.83819247 8.87612993,10.3771046 8.87612993,10.9628787 C8.87612993,11.5486527 9.15872854,12.0875649 9.6719536,12.4858912 C10.1494478,12.8540921 10.7731137,13.0582762 11.4357587,13.0582762 C12.0984037,13.0582762 12.7220696,12.8540921 13.1995638,12.4858912 C13.7127889,12.0875649 13.9953875,11.5486527 13.9953875,10.9628787 L13.9953875,3.52187448 C13.9953875,3.5185272 13.9953875,3.5185272 13.9953875,3.5185272 Z M2.57125754,15.0699916 C1.65849652,15.0699916 0.888658933,14.5243849 0.888658933,13.8783598 C0.888658933,13.2323347 1.65849652,12.686728 2.57125754,12.686728 C3.48401856,12.686728 4.25385615,13.2323347 4.25385615,13.8783598 C4.25385615,14.5277322 3.48401856,15.0699916 2.57125754,15.0699916 Z M5.13088631,5.80471967 L5.13088631,3.68254393 L13.1183573,1.06831799 L13.1183573,3.19049372 L5.13088631,5.80471967 Z M11.439007,12.1545105 C10.5262459,12.1545105 9.75640835,11.6089038 9.75640835,10.9628787 C9.75640835,10.3168536 10.5262459,9.77124686 11.439007,9.77124686 C12.351768,9.77124686 13.1216056,10.3168536 13.1216056,10.9628787 C13.1183573,11.6089038 12.3485197,12.1545105 11.439007,12.1545105 Z" id="Shape"></path>
            </g>
        </g>
    </g>
</svg>